<svg xmlns="http://www.w3.org/2000/svg" width="1200" height="630" viewBox="0 0 1200 630">
  <defs>
    <linearGradient id="bg" x1="0%" y1="0%" x2="100%" y2="100%">
      <stop offset="0%" style="stop-color:#1f2937"/>
      <stop offset="100%" style="stop-color:#111827"/>
    </linearGradient>
  </defs>

  <!-- Background -->
  <rect width="1200" height="630" fill="url(#bg)"/>

  <!-- Decorative workout chart bars -->
  <g opacity="0.15">
    <rect x="100" y="400" width="60" height="150" fill="#3b82f6"/>
    <rect x="180" y="350" width="60" height="200" fill="#22c55e"/>
    <rect x="260" y="280" width="60" height="270" fill="#eab308"/>
    <rect x="340" y="200" width="60" height="350" fill="#f97316"/>
    <rect x="420" y="250" width="60" height="300" fill="#ef4444"/>
    <rect x="500" y="200" width="60" height="350" fill="#f97316"/>
    <rect x="580" y="280" width="60" height="270" fill="#eab308"/>
    <rect x="660" y="200" width="60" height="350" fill="#f97316"/>
    <rect x="740" y="280" width="60" height="270" fill="#eab308"/>
    <rect x="820" y="350" width="60" height="200" fill="#22c55e"/>
    <rect x="900" y="400" width="60" height="150" fill="#3b82f6"/>
    <rect x="980" y="450" width="60" height="100" fill="#6b7280"/>
    <rect x="1060" y="480" width="60" height="70" fill="#6b7280"/>
  </g>

  <!-- Lightning icon -->
  <g transform="translate(500, 180)">
    <rect width="80" height="80" rx="16" fill="#f97316"/>
    <path d="M45 10L20 45h15l-5 25 25-35H40l5-25z" fill="white"/>
  </g>

  <!-- Title -->
  <text x="600" y="320" font-family="system-ui, -apple-system, sans-serif" font-size="72" font-weight="bold" fill="white" text-anchor="middle">ZWO Generator</text>

  <!-- Subtitle -->
  <text x="600" y="380" font-family="system-ui, -apple-system, sans-serif" font-size="28" fill="#9ca3af" text-anchor="middle">AI-Powered Zwift Workout Creator</text>

  <!-- Features -->
  <text x="600" y="480" font-family="system-ui, -apple-system, sans-serif" font-size="22" fill="#6b7280" text-anchor="middle">Describe → Generate → Export to .zwo</text>
</svg>
